PathFileType	3	(X/Y/Z)	D:\minhoCalibration\240510\subject2_KPNP\preferred\preferred17.trc
DataRate	CameraRate	NumFrames	NumMarkers	Units	OrigDataRate	OrigDataStartFrame	OrigNumFrames
200.0	200.0	18	10	mm	200.0	417	194	
Frame#	Time	Left_Ankle_Outer1			Left_Ankle_Inner1			Left_Knee_Outer1			Left_Knee_Inner1			Left_Wrist1			Right_Wrist1			Right_Knee_Inner1			Right_Knee_Outer1			Right_Ankle_Inner1			Right_Ankle_Outer1			
		X1	Y1	Z1	X2	Y2	Z2	X3	Y3	Z3	X4	Y4	Z4	X5	Y5	Z5	X6	Y6	Z6	X7	Y7	Z7	X8	Y8	Z8	X9	Y9	Z9	X10	Y10	Z10	
417	2.075	-613.92633	111.02483	-707.64771	-610.34442	118.14166	-652.07526	-452.61572	528.73529	-758.96771	-447.76831	511.92786	-663.56366	-568.54492	947.93121	-838.05585	-549.49249	1180.2549	-577.09387	-337.04977	1000.765	-225.75122	-329.73529	1087.9468	-244.64632	-347.17761	987.67584	185.57407	-331.3855	1088.1843	189.93858
418	2.08	-613.7121	112.12562	-708.12775	-609.92371	118.74502	-652.42334	-452.9415	530.17651	-756.86694	-448.29031	513.05371	-661.84363	-567.62811	947.98853	-836.20972	-549.75085	1181.0403	-575.28741	-338.01645	1004.4417	-226.17818	-341.62402	1093.1049	-239.55661	-345.46982	979.3869	185.91411	-332.35651	1080.8435	194.08832
419	2.085	-613.39099	113.02416	-707.9953	-609.78564	119.81885	-651.65796	-452.96957	531.57935	-754.98517	-449.27008	514.09784	-659.93982	-566.84656	947.62714	-834.29529	-550.04492	1182.2899	-573.82959	-336.5683	1008.1671	-227.25055	-352.76254	1095.4337	-234.18297	-341.2356	972.6214	186.7545	-334.2955	1073.2048	197.02075
420	2.09	-613.0246	113.7257	-707.23346	-609.62207	121.08533	-650.39722	-452.9335	532.79126	-752.97186	-450.67642	515.117	-657.75848	-565.9928	947.26483	-832.34033	-550.56757	1184.0884	-572.98175	-334.85593	1011.1171	-228.70772	-360.47443	1096.182	-230.41571	-338.85321	966.2569	187.65121	-338.53467	1066.683	198.73047
421	2.095	-613.06702	114.81454	-706.66101	-609.40833	120.53805	-651.45074	-452.901	533.91498	-750.9928	-452.30563	516.22461	-655.51514	-564.6792	947.04163	-830.43475	-551.34729	1186.1749	-572.62524	-334.14578	1012.931	-229.10277	-365.21509	1095.895	-227.33578	-340.06119	960.53259	188.33717	-343.68417	1062.2025	199.06738
422	2.1	-613.0943	115.75291	-705.76001	-609.18555	121.94332	-649.83539	-452.68784	534.98383	-749.09753	-454.2431	517.35559	-653.19318	-563.06384	946.95941	-828.70972	-552.36102	1188.3662	-572.62909	-333.69107	1013.0425	-227.52988	-368.55499	1094.9703	-224.29474	-342.8696	957.9986	190.48633	-348.87094	1058.7539	199.80751
423	2.105	-613.13721	116.66891	-704.6394	-608.94965	122.99693	-648.375	-452.77255	535.76385	-747.06097	-456.30621	518.50903	-650.8866	-561.08081	947.11237	-827.25049	-553.58691	1190.5156	-572.81128	-333.55225	1012.4334	-225.12662	-370.81311	1093.6752	-221.45639	-345.38785	954.24811	192.16425	-354.80124	1055.6907	202.84042
424	2.11	-613.21887	117.43216	-703.57831	-608.95563	122.73779	-648.40778	-452.35977	536.69904	-745.46912	-458.36459	519.65118	-648.71326	-559.05347	947.37964	-826.21667	-555.07349	1192.4283	-573.14954	-334.92014	1011.1534	-222.43396	-372.51453	1091.9436	-219.0433	-347.37787	949.73834	192.94966	-360.8732	1050.998	206.15857
425	2.115	-613.24994	118.10566	-702.39532	-608.77612	123.26854	-647.37274	-451.97699	537.52716	-743.92566	-460.32199	520.74591	-646.73505	-556.77423	948.35254	-825.56122	-556.66187	1193.9683	-573.35028	-337.61539	1009.8237	-219.84384	-374.59564	1090.1157	-216.79782	-348.32733	945.59631	193.33337	-366.35965	1045.1366	208.55115
426	2.12	-613.35944	118.67133	-701.40717	-608.86401	124.76521	-644.87738	-451.52731	538.37146	-742.58197	-461.97577	521.70947	-645.10809	-554.50079	949.56348	-825.34973	-558.41345	1195.0311	-573.31256	-340.96753	1008.4457	-217.38857	-377.54477	1088.1639	-214.66748	-349.16586	941.02277	194.10277	-371.7421	1038.2874	210.70541
427	2.125	-613.42828	119.19118	-700.67139	-608.46027	125.12428	-644.35767	-451.56122	538.90674	-741.22754	-463.39197	522.51727	-643.8385	-552.245	951.16736	-825.33521	-560.31293	1195.5759	-572.93921	-344.78351	1006.2435	-215.00177	-382.03641	1085.9695	-211.83681	-345.70221	937.9071	191.6064	-376.76056	1030.0812	212.68207
428	2.13	-613.43481	119.41987	-700.02545	-608.73938	124.88422	-644.11823	-452.27664	538.93591	-739.7525	-464.46906	523.21161	-643.11108	-549.83569	952.81427	-825.47919	-562.39221	1195.6631	-572.31067	-348.57394	1004.4716	-212.83275	-387.34213	1083.4485	-208.9097	-345.83685	930.61096	192.04243	-381.34039	1021.2844	214.86182
429	2.135	-613.49652	119.60484	-699.76935	-608.55682	125.16727	-643.80029	-452.57629	539.35114	-738.96509	-465.25058	523.67133	-642.77667	-547.52911	954.54614	-825.43787	-564.6665	1195.2952	-571.45007	-351.72382	1002.6091	-210.8573	-392.97165	1080.6663	-205.84422	-346.45303	922.60309	192.2184	-385.11365	1011.266	216.76222
430	2.14	-613.57361	119.56415	-699.82556	-609.15771	124.67293	-643.81775	-453.03824	539.60516	-738.50842	-465.72162	523.85553	-642.85974	-544.79089	956.74768	-826.1438	-566.98108	1194.635	-570.51599	-355.33459	1000.299	-209.02116	-398.78036	1077.8597	-202.61357	-354.66849	910.53357	199.58206	-388.80588	1000.9305	218.40887
431	2.145	-613.60846	119.49973	-700.19073	-609.15063	124.10114	-644.99445	-453.43741	540.15759	-738.43756	-466.18869	523.79779	-643.24561	-542.23059	958.99567	-826.72632	-569.3432	1193.7864	-569.46466	-358.28925	998.72675	-207.39154	-404.37509	1075.4055	-199.36031	-347.92236	904.66797	190.24847	-391.87689	990.57898	219.32529
432	2.15	-613.60913	119.33286	-700.82971	-609.33051	124.22352	-645.28687	-454.20987	540.10742	-738.76636	-466.67798	523.49274	-643.93756	-539.53729	960.97876	-827.25769	-571.87543	1192.7913	-568.26709	-361.07587	996.70282	-206.222	-409.94263	1072.9878	-196.12471	-355.25244	893.81329	196.47177	-395.84579	980.45856	220.24469
433	2.155	-613.53247	119.14407	-701.78247	-609.95325	124.16655	-645.39813	-455.74265	539.59735	-738.98737	-467.29572	522.98224	-644.81543	-536.83704	962.97699	-827.90753	-574.55835	1191.6331	-566.92816	-368.22745	993.30768	-202.49243	-414.6954	1070.8204	-193.2567	-351.94171	887.6524	188.92075	-399.56003	969.88715	220.29189
434	2.16	-613.45563	118.88735	-702.75098	-610.00903	123.15458	-647.57208	-456.66821	539.35547	-740.03052	-468.17459	522.36603	-645.82666	-534.13739	964.79297	-828.72723	-577.3811	1190.2573	-565.51501	-373.33548	990.35107	-200.40326	-418.77731	1068.7749	-190.90742	-354.66129	878.92426	187.26085	-403.49271	959.54535	220.24097
